<svg width="50" height="50" viewBox="0 0 50 50" fill="none" xmlns="http://www.w3.org/2000/svg">
<path d="M32.4609 37.9687C30.5859 41.2109 29.0234 44.5312 25 44.5312C20.9766 44.5312 19.4141 41.2109 17.5391 37.9687L17.2266 37.3047C10.6641 39.1016 4.17969 39.6094 3.59375 47.5391C3.55469 48.2031 4.0625 48.8281 4.76563 48.8281H19.5313L25 44.5312L30.4688 48.8281H46.4844C46.4844 39.6484 39.6875 39.2188 32.7734 37.3047L32.4609 37.9687Z" fill="#AFAFBC"/>
<path d="M25 32.4219C17.1875 32.4219 9.375 34.7656 9.375 42.1875C9.375 42.8516 9.88281 43.3594 10.5469 43.3594H39.4531C40.1172 43.3594 40.625 42.8516 40.625 42.1875C40.625 34.7656 32.8125 32.4219 25 32.4219Z" fill="#EAD063"/>
<path d="M41.0938 38.3984C39.1797 33.8281 33.5547 31.25 25 31.25C16.4453 31.25 10.8203 33.8281 8.90625 38.3984C6.71875 39.2188 4.88281 40.3906 3.67188 42.3047C3.32031 42.8516 3.51563 43.5938 4.0625 43.9063C4.60938 44.2578 5.35156 44.0625 5.66406 43.5156C6.25 42.5391 7.14844 41.8359 8.24219 41.25C8.20313 41.5625 8.20313 41.8359 8.20313 42.1484C8.20313 42.8125 8.71094 43.3203 9.375 43.3203C10.0391 43.3203 10.5469 42.8125 10.5469 42.1484C10.5469 34.375 20.6641 33.5547 25 33.5547C29.3359 33.5547 39.4531 34.375 39.4531 42.1484C39.4531 42.8125 39.9609 43.3203 40.625 43.3203C41.2891 43.3203 41.7969 42.8125 41.7969 42.1484C41.7969 41.8359 41.7969 41.5234 41.7578 41.25C44.0625 42.4609 45.3125 44.2578 45.3125 47.6172C45.3125 48.2813 45.8203 48.7891 46.4844 48.7891C47.1484 48.7891 47.6563 48.2813 47.6563 47.6172C47.6563 42.2266 44.7656 39.8438 41.0938 38.3984Z" fill="#444B54"/>
<path d="M18.3594 47.6563V38.8672C18.3594 35.1563 21.4063 31.9922 25.1172 32.0703C28.7109 32.1094 31.6406 35.0391 31.6406 38.6719V47.6563C31.6406 48.3203 31.1328 48.8281 30.4688 48.8281H19.5312C18.8672 48.8281 18.3594 48.3203 18.3594 47.6563Z" fill="#242426"/>
<path d="M31.6406 29.6875C30.9766 29.6875 30.4688 30.1953 30.4688 30.8594V33.0859C29.0625 31.7187 27.1094 30.8594 25 30.8594C22.8906 30.8594 20.9375 31.7187 19.5312 33.0859V30.8594C19.5312 30.1953 19.0234 29.6875 18.3594 29.6875C17.6953 29.6875 17.1875 30.1953 17.1875 30.8594V46.4844C17.1875 47.1484 17.6953 47.6562 18.3594 47.6562C19.0234 47.6562 19.5312 47.1484 19.5312 46.4844V38.6719C19.5312 35.6641 21.9922 33.2031 25 33.2031C28.0078 33.2031 30.4688 35.6641 30.4688 38.6719V46.4844C30.4688 47.1484 30.9766 47.6562 31.6406 47.6562C32.3047 47.6562 32.8125 47.1484 32.8125 46.4844V30.8594C32.8125 30.1953 32.3047 29.6875 31.6406 29.6875Z" fill="#444B54"/>
<path d="M25 40.625C21.9922 40.625 19.5312 39.3359 19.5312 36.3281V27.3438H30.4688V36.3281C30.4688 39.3359 28.0078 40.625 25 40.625Z" fill="#F9DED4"/>
<path d="M25 34.7656C14.9609 34.7656 14.4531 29.0625 14.4531 26.9531L13.6719 14.4531C13.6719 7.57812 18.125 1.95312 25 1.95312C31.875 1.95312 36.3281 7.57812 36.3281 14.4531L35.5469 26.9531C35.5469 29.1016 35.4297 34.7656 25 34.7656Z" fill="#F9DED4"/>
<path d="M27.4219 29.5703C27.2266 29.5703 27.0313 29.5313 26.8359 29.4141C25.5078 28.6719 24.375 28.6719 23.2422 29.375C22.6953 29.7266 21.9531 29.5703 21.6406 28.9844C21.2891 28.4375 21.4453 27.6953 22.0313 27.3828C23.8672 26.25 25.9375 26.2109 28.0078 27.3828C28.5938 27.6953 28.7891 28.3984 28.4766 28.9844C28.2422 29.3359 27.8516 29.5703 27.4219 29.5703Z" fill="#D8AC9E"/>
<path d="M25 35.9375C24.9609 35.9375 24.9609 35.9375 25 35.9375C21.1719 35.9375 16.9531 33.9063 15.0781 31.9531C14.4141 31.25 14.1406 29.9219 13.8281 27.8125C13.7891 27.4219 13.7109 27.0703 13.6719 26.7578C13.5547 26.1328 13.9844 25.5078 14.6094 25.3906C15.2344 25.2734 15.8594 25.7031 15.9766 26.3281C16.0156 26.6406 16.0938 27.0313 16.1328 27.4219C16.25 28.2813 16.4844 29.9219 16.7578 30.3125C18.125 31.6797 21.7188 33.5547 24.9609 33.5547C28.2422 33.5547 31.8359 31.6797 33.1641 30.3125C33.3984 29.9219 33.6328 28.3203 33.7891 27.4219C33.8281 27.0313 33.9063 26.6406 33.9453 26.3281C34.0625 25.7031 34.6484 25.2734 35.3125 25.3906C35.9375 25.5078 36.3672 26.0938 36.25 26.7578C36.2109 27.0703 36.1328 27.4219 36.0938 27.8125C35.7813 29.9219 35.5469 31.25 34.8438 31.9531C33.0078 33.9063 28.7891 35.9375 25 35.9375Z" fill="#444B54"/>
<path d="M34.8828 4.84376C32.6172 2.22657 29.1016 0.781262 25 0.781262C21.7969 0.781262 20.5078 1.09376 19.8828 1.28907C19.8438 1.25001 19.7656 1.21095 19.7266 1.17189C19.5703 1.01564 19.375 0.859387 19.1016 0.664074C18.5938 0.234387 17.8516 0.312512 17.4609 0.820324C17.0313 1.32814 17.1094 2.07032 17.6172 2.46095C17.7344 2.53907 17.8125 2.6172 17.9297 2.69532C17.7344 2.81251 17.5781 2.9297 17.3828 3.04689C16.875 2.96876 16.2109 2.77345 15.2734 2.42189C14.6875 2.18751 13.9844 2.50001 13.75 3.12501C13.5156 3.75001 13.8281 4.41407 14.4531 4.64845C14.7266 4.76564 14.9609 4.84376 15.2344 4.92189C15 5.19532 14.7266 5.46876 14.4922 5.7422C12.8906 7.81251 11.4844 11.3672 12.5391 16.6406C12.6563 17.3047 12.9297 19.2969 12.9297 19.2969C13.0078 19.9219 13.6328 20.3906 14.2578 20.2735C14.8828 20.1953 15.3516 19.5703 15.2344 18.9453C15.2344 18.9453 14.9219 17.1485 14.8438 15.9766C14.6875 13.2813 15.3516 10.9766 16.4844 9.25782C18.2813 6.52345 19.8438 6.71876 22.4219 6.87501C23.2031 6.91407 24.0625 6.9922 25.0391 6.9922C25.9375 6.9922 26.7578 6.91407 27.4609 6.87501C30.2734 6.6797 32.1484 6.3672 34.2578 11.0156C35 12.6563 35.2734 14.5313 35.1953 16.2891C35.1563 17.1094 34.8047 19.5313 34.8047 19.5313C34.7266 20.1563 35.1953 20.7422 35.8203 20.8203C35.8594 20.8203 35.8984 20.8203 35.9766 20.8203C36.5625 20.8203 37.0703 20.3906 37.1484 19.8047C37.1484 19.8047 37.4219 17.3438 37.5391 16.5234C38.125 11.6797 37.3047 7.65626 34.8828 4.84376Z" fill="#444B54"/>
<path d="M22.6562 18.75C22.6562 19.6094 21.9531 19.1406 21.0938 19.1406C20.2344 19.1406 19.5312 19.6094 19.5312 18.75C19.5312 17.8906 20.2344 17.1875 21.0938 17.1875C21.9531 17.1875 22.6562 17.8906 22.6562 18.75Z" fill="#D8AC9E"/>
<path d="M30.4688 18.75C30.4688 19.6094 29.7656 19.1406 28.9062 19.1406C28.0469 19.1406 27.3438 19.6094 27.3438 18.75C27.3438 17.8906 28.0469 17.1875 28.9062 17.1875C29.7656 17.1875 30.4688 17.8906 30.4688 18.75Z" fill="#D8AC9E"/>
</svg>
